<svg width="38" height="49" viewBox="0 0 38 49" fill="none" xmlns="http://www.w3.org/2000/svg">
<path d="M18.6667 37.3333C21.2333 37.3333 23.3333 35.2333 23.3333 32.6667C23.3333 30.1 21.2333 28 18.6667 28C16.1 28 14 30.1 14 32.6667C14 35.2333 16.1 37.3333 18.6667 37.3333ZM32.6667 16.3333H30.3333V11.6667C30.3333 5.22667 25.1067 0 18.6667 0C12.2267 0 7 5.22667 7 11.6667V16.3333H4.66667C2.1 16.3333 0 18.4333 0 21V44.3333C0 46.9 2.1 49 4.66667 49H32.6667C35.2333 49 37.3333 46.9 37.3333 44.3333V21C37.3333 18.4333 35.2333 16.3333 32.6667 16.3333ZM11.4333 11.6667C11.4333 7.67667 14.6767 4.43333 18.6667 4.43333C22.6567 4.43333 25.9 7.67667 25.9 11.6667V16.3333H11.4333V11.6667ZM32.6667 44.3333H4.66667V21H32.6667V44.3333Z" fill="black"/>
</svg>
