<svg width="260" height="260" viewBox="0 0 260 260" fill="none" xmlns="http://www.w3.org/2000/svg">
<g clip-path="url(#clip0_16_10)">
<path d="M237.25 96.3083L225.875 48.9667C223.492 39.2167 215.042 32.5 205.183 32.5H54.7082C44.9582 32.5 36.3998 39.325 34.1248 48.9667L22.7498 96.3083C20.1498 107.358 22.5332 118.625 29.4665 127.508C30.3332 128.7 31.5248 129.567 32.4998 130.65V205.833C32.4998 217.75 42.2498 227.5 54.1665 227.5H205.833C217.75 227.5 227.5 217.75 227.5 205.833V130.65C228.475 129.675 229.667 128.7 230.533 127.617C237.467 118.733 239.958 107.358 237.25 96.3083ZM204.858 54.0583L216.233 101.4C217.317 105.95 216.342 110.5 213.525 114.075C212.008 116.025 208.758 119.167 203.342 119.167C196.733 119.167 190.992 113.858 190.233 106.817L183.95 54.1667L204.858 54.0583ZM140.833 54.1667H162.066L167.917 103.133C168.458 107.358 167.158 111.583 164.342 114.725C161.958 117.542 158.492 119.167 154.05 119.167C146.792 119.167 140.833 112.775 140.833 104.975V54.1667ZM91.9748 103.133L97.9332 54.1667H119.167V104.975C119.167 112.775 113.208 119.167 105.191 119.167C101.508 119.167 98.1498 117.542 95.5498 114.725C92.8415 111.583 91.5415 107.358 91.9748 103.133ZM43.7665 101.4L54.7082 54.1667H76.0498L69.7665 106.817C68.8998 113.858 63.2665 119.167 56.6582 119.167C51.3498 119.167 47.9915 116.025 46.5832 114.075C43.6582 110.608 42.6832 105.95 43.7665 101.4ZM54.1665 205.833V140.508C55.0332 140.617 55.7915 140.833 56.6582 140.833C66.0832 140.833 74.6415 136.933 80.9248 130.542C87.4248 137.042 96.0915 140.833 105.95 140.833C115.375 140.833 123.825 136.933 130.108 130.758C136.5 136.933 145.167 140.833 154.917 140.833C164.017 140.833 172.683 137.042 179.183 130.542C185.467 136.933 194.025 140.833 203.45 140.833C204.317 140.833 205.075 140.617 205.942 140.508V205.833H54.1665Z" fill="black"/>
</g>
<defs>
<clipPath id="clip0_16_10">
<rect width="260" height="260" fill="white"/>
</clipPath>
</defs>
</svg>
