<svg width="196" height="196" viewBox="0 0 196 196" fill="none" xmlns="http://www.w3.org/2000/svg">
<g clip-path="url(#clip0_84_4)">
<path d="M98.0013 36.75C57.168 36.75 22.2963 62.1483 8.16797 98C22.2963 133.852 57.168 159.25 98.0013 159.25C138.835 159.25 173.706 133.852 187.835 98C173.706 62.1483 138.835 36.75 98.0013 36.75ZM98.0013 138.833C75.4613 138.833 57.168 120.54 57.168 98C57.168 75.46 75.4613 57.1667 98.0013 57.1667C120.541 57.1667 138.835 75.46 138.835 98C138.835 120.54 120.541 138.833 98.0013 138.833ZM98.0013 73.5C84.4446 73.5 73.5013 84.4433 73.5013 98C73.5013 111.557 84.4446 122.5 98.0013 122.5C111.558 122.5 122.501 111.557 122.501 98C122.501 84.4433 111.558 73.5 98.0013 73.5Z" fill="black"/>
</g>
<defs>
<clipPath id="clip0_84_4">
<rect width="196" height="196" fill="white"/>
</clipPath>
</defs>
</svg>
