<svg width="158" height="158" viewBox="0 0 158 158" fill="none" xmlns="http://www.w3.org/2000/svg">
<g clip-path="url(#clip0_84_10)">
<path d="M46.082 118.5C38.8404 118.5 32.9812 124.425 32.9812 131.667C32.9812 138.908 38.8404 144.833 46.082 144.833C53.3237 144.833 59.2487 138.908 59.2487 131.667C59.2487 124.425 53.3237 118.5 46.082 118.5ZM6.58203 13.1665V26.3332H19.7487L43.4487 76.3007L34.5612 92.4298C33.5079 94.2732 32.9154 96.4457 32.9154 98.7498C32.9154 105.992 38.8404 111.917 46.082 111.917H125.082V98.7498H48.847C47.9254 98.7498 47.2012 98.0257 47.2012 97.104L47.3987 96.314L53.3237 85.5832H102.37C107.307 85.5832 111.652 82.884 113.89 78.8023L137.459 36.0765C137.985 35.1548 138.249 34.0357 138.249 32.9165C138.249 29.2957 135.286 26.3332 131.665 26.3332H34.2979L28.1095 13.1665H6.58203ZM111.915 118.5C104.674 118.5 98.8145 124.425 98.8145 131.667C98.8145 138.908 104.674 144.833 111.915 144.833C119.157 144.833 125.082 138.908 125.082 131.667C125.082 124.425 119.157 118.5 111.915 118.5Z" fill="black"/>
</g>
<defs>
<clipPath id="clip0_84_10">
<rect width="158" height="158" fill="white"/>
</clipPath>
</defs>
</svg>
