<svg width="52" height="54" viewBox="0 0 52 54" fill="none" xmlns="http://www.w3.org/2000/svg">
<path d="M26 0C11.648 0 0 12.096 0 27C0 41.904 11.648 54 26 54C40.352 54 52 41.904 52 27C52 12.096 40.352 0 26 0ZM28.6 45.9H23.4V40.5H28.6V45.9ZM33.982 24.975L31.642 27.459C29.77 29.43 28.6 31.05 28.6 35.1H23.4V33.75C23.4 30.78 24.57 28.08 26.442 26.109L29.666 22.707C30.628 21.735 31.2 20.385 31.2 18.9C31.2 15.93 28.86 13.5 26 13.5C23.14 13.5 20.8 15.93 20.8 18.9H15.6C15.6 12.933 20.254 8.1 26 8.1C31.746 8.1 36.4 12.933 36.4 18.9C36.4 21.276 35.464 23.436 33.982 24.975Z" fill="black"/>
</svg>
